<?xml version="1.0" encoding="UTF-8" standalone="no"?>
<svg
   viewBox="0 0 34 84"
   version="1.1"
   id="svg6"
   sodipodi:docname="breadcrumb.svg"
   width="34"
   height="84"
   inkscape:version="1.4.2 (ebf0e940d0, 2025-05-08)"
   xmlns:inkscape="http://www.inkscape.org/namespaces/inkscape"
   xmlns:sodipodi="http://sodipodi.sourceforge.net/DTD/sodipodi-0.dtd"
   xmlns="http://www.w3.org/2000/svg"
   xmlns:svg="http://www.w3.org/2000/svg"
   xmlns:rdf="http://www.w3.org/1999/02/22-rdf-syntax-ns#"
   xmlns:cc="http://creativecommons.org/ns#"
   xmlns:dc="http://purl.org/dc/elements/1.1/">
  <metadata
     id="metadata10">
    <rdf:RDF>
      <cc:Work
         rdf:about="">
        <dc:format>image/svg+xml</dc:format>
        <dc:type
           rdf:resource="http://purl.org/dc/dcmitype/StillImage" />
      </cc:Work>
    </rdf:RDF>
  </metadata>
  <sodipodi:namedview
     pagecolor="#dcdcdc"
     bordercolor="#666666"
     borderopacity="1"
     objecttolerance="10"
     gridtolerance="10"
     guidetolerance="10"
     inkscape:pageopacity="0"
     inkscape:pageshadow="2"
     inkscape:window-width="2560"
     inkscape:window-height="1368"
     id="namedview8"
     showgrid="false"
     inkscape:zoom="22.627417"
     inkscape:cx="1.8782524"
     inkscape:cy="80.278717"
     inkscape:window-x="0"
     inkscape:window-y="0"
     inkscape:window-maximized="1"
     inkscape:current-layer="right"
     inkscape:showpageshadow="2"
     inkscape:pagecheckerboard="0"
     inkscape:deskcolor="#d1d1d1">
    <inkscape:grid
       type="xygrid"
       id="grid4506"
       originx="0"
       originy="0"
       spacingy="1"
       spacingx="1"
       units="px"
       visible="false" />
  </sodipodi:namedview>
  <defs
     id="defs3051">
    <style
       type="text/css"
       id="current-color-scheme">
      .ColorScheme-Text {
        color:#eff0f1;
      }
      
      .ColorScheme-Background {
        color:#0c0c0c;
      }</style>
  </defs>
  <g
     id="right"
     transform="matrix(1,0,0,1.4545454,-23,51.999998)">
    <rect
       y="0"
       x="48"
       height="22.000002"
       width="9"
       id="rect861"
       style="opacity:1;fill:none;fill-opacity:1;stroke:none;stroke-width:2;stroke-linecap:square;stroke-linejoin:round;stroke-miterlimit:4;stroke-dasharray:none;stroke-dashoffset:0;stroke-opacity:1" />
    <path
       id="rect820"
       d="M 48,0.6875003 V 20.625001 h 0.75 c 0.53799,-1.55e-4 1.025852,-0.314466 1.244141,-0.800781 l 3.888671,-8.277345 c 0.156254,-0.347931 0.156254,-0.74582 0,-1.09375 L 49.994141,1.4882815 C 49.775852,1.0019668 49.28799,0.6876553 48.75,0.6875003 Z"
       style="opacity:1;fill:#3e3750;fill-opacity:1;stroke:none"
       inkscape:connector-curvature="0"
       class="ColorScheme-Text"
       sodipodi:nodetypes="ccccccccc" />
  </g>
  <g
     id="center"
     transform="matrix(1,0,0,1.4545454,-24,92.72727)">
    <rect
       y="-28"
       x="31"
       height="22"
       width="17"
       id="rect868"
       style="opacity:1;fill:none;fill-opacity:1;stroke:none;stroke-width:2;stroke-linecap:square;stroke-linejoin:round;stroke-miterlimit:4;stroke-dasharray:none;stroke-dashoffset:0;stroke-opacity:1" />
    <path
       id="path835"
       d="M 31,-27.312501 V -7.3749998 H 48 V -27.312501 Z"
       style="opacity:1;fill:#3e3750;fill-opacity:1;stroke:none;stroke-width:0.99843627"
       inkscape:connector-curvature="0"
       class="ColorScheme-Text" />
  </g>
  <g
     id="left"
     transform="matrix(1,0,0,1.4545454,-39,51.999998)">
    <rect
       y="0"
       x="39"
       height="22"
       width="6"
       id="rect875"
       style="opacity:1;fill:none;fill-opacity:1;stroke:none;stroke-width:2;stroke-linecap:square;stroke-linejoin:round;stroke-miterlimit:4;stroke-dasharray:none;stroke-dashoffset:0;stroke-opacity:1" />
    <path
       inkscape:connector-curvature="0"
       id="path839"
       d="m 41.363281,0.6875003 c -0.984935,1.29e-4 -1.644132,1.002402 -1.24414,1.892578 L 43.761719,11 40.119141,18.732423 c -0.399992,0.890175 0.259205,1.89245 1.24414,1.892578 H 45 V 0.6875003 Z"
       style="opacity:1;fill:#3e3750;fill-opacity:1;stroke:none"
       class="ColorScheme-Text"
       sodipodi:nodetypes="cccccccc" />
  </g>
  <g
     transform="matrix(1,0,0,1.4545454,-23,14)"
     id="focus-right">
    <rect
       style="opacity:1;fill:none;fill-opacity:1;stroke:none;stroke-width:2;stroke-linecap:square;stroke-linejoin:round;stroke-miterlimit:4;stroke-dasharray:none;stroke-dashoffset:0;stroke-opacity:1"
       id="rect919"
       width="9"
       height="22"
       x="48"
       y="0" />
    <path
       sodipodi:nodetypes="ccccccccc"
       class="ColorScheme-Text"
       inkscape:connector-curvature="0"
       style="opacity:1;fill:#bd93f9;fill-opacity:1;stroke:none"
       d="M 48,0.6875003 V 20.625001 h 0.75 c 0.53799,-1.55e-4 1.025852,-0.314466 1.244141,-0.800781 l 3.888671,-8.277345 c 0.156254,-0.347931 0.156254,-0.74582 0,-1.09375 L 49.994141,1.4882815 C 49.775852,1.0019668 49.28799,0.6876553 48.75,0.6875003 Z"
       id="path921" />
  </g>
  <g
     transform="matrix(1,0,0,1.4545454,-24,54.727272)"
     id="focus-center">
    <rect
       style="opacity:1;fill:none;fill-opacity:1;stroke:none;stroke-width:2;stroke-linecap:square;stroke-linejoin:round;stroke-miterlimit:4;stroke-dasharray:none;stroke-dashoffset:0;stroke-opacity:1"
       id="rect927"
       width="17"
       height="22"
       x="31"
       y="-28" />
    <path
       class="ColorScheme-Text"
       inkscape:connector-curvature="0"
       style="opacity:1;fill:#bd93f9;fill-opacity:1;stroke:none;stroke-width:0.99843627"
       d="M 31,-27.312501 V -7.3749998 H 48 V -27.312501 Z"
       id="path929" />
  </g>
  <g
     transform="matrix(1,0,0,1.4545454,-39,14)"
     id="focus-left">
    <rect
       style="opacity:1;fill:none;fill-opacity:1;stroke:none;stroke-width:2;stroke-linecap:square;stroke-linejoin:round;stroke-miterlimit:4;stroke-dasharray:none;stroke-dashoffset:0;stroke-opacity:1"
       id="rect935"
       width="6"
       height="22"
       x="39"
       y="0" />
    <path
       sodipodi:nodetypes="cccccccc"
       class="ColorScheme-Text"
       style="opacity:1;fill:#bd93f9;fill-opacity:1;stroke:none"
       d="m 41.363281,0.6875003 c -0.984935,1.29e-4 -1.644132,1.002402 -1.24414,1.892578 L 43.761719,11 40.119141,18.732423 c -0.399992,0.890175 0.259205,1.89245 1.24414,1.892578 H 45 V 0.6875003 Z"
       id="path937"
       inkscape:connector-curvature="0" />
  </g>
</svg>
